<svg width="60" height="60" viewBox="0 0 1023 1023" fill="none" xmlns="http://www.w3.org/2000/svg">
<rect width="1023" height="1023" fill="#FFD62F"/>
<g clip-path="url(#clip0_29_253)">
<path d="M631.436 349.481C633.233 351.681 634.404 353.401 635.843 354.842C689.592 408.69 743.363 462.504 797.135 516.33C855.636 574.902 855.636 667.12 797.135 725.68C737.06 785.827 676.975 845.962 616.9 906.097C557.06 965.998 465.638 965.964 405.742 906.008C345.924 846.129 286.106 786.251 226.288 726.373C193.401 693.463 178.798 653.619 182.58 607.431C185.458 572.221 200.061 541.981 224.994 516.955C278.944 462.795 333.039 408.757 387.078 354.685C388.216 353.546 389.488 352.53 391.574 350.699C392.176 352.977 392.812 354.362 392.89 355.791C393.325 364.133 393.861 372.486 393.794 380.839C393.783 383.016 392.221 385.652 390.581 387.293C350.041 428.042 309.344 468.624 268.815 509.384C256.499 521.768 243.502 533.717 232.748 547.375C195.442 594.746 200.027 663.669 242.576 706.317C303.666 767.557 364.8 828.764 425.99 889.916C473.28 937.175 549.675 937.019 596.976 889.67C657.842 828.742 718.72 767.814 779.586 706.886C827.077 659.348 827.222 582.886 779.765 535.247C726.596 481.879 673.293 428.634 620.057 375.333C614.77 370.04 614.848 367.248 620.258 362.045C622.132 360.247 623.906 358.337 625.647 356.394C627.353 354.484 628.96 352.463 631.448 349.481H631.436Z" fill="#1C1D26"/>
<path d="M673.952 166.039C661.915 157.987 647.892 152.604 639.045 140.276C637.941 138.735 637.004 136.479 637.216 134.704C638.978 119.539 638.911 104.586 632.697 90.303C629.351 82.6088 624.799 75.7633 616.633 72C623.873 80.8556 628.09 90.9842 629.54 102.151C630.979 113.218 630.5 124.218 627.32 134.793C624.721 123.079 623.003 111.163 619.31 99.8955C615.428 88.0807 607.965 78.4546 595.214 73.1614C595.56 74.3116 595.56 74.7025 595.749 74.8811C612.963 90.2025 617.157 110.259 616.365 132.068C616.309 133.453 615.372 135.541 614.324 135.943C613.331 136.323 611.434 135.184 610.308 134.268C606.291 130.996 602.766 126.998 598.415 124.296C594.935 122.141 590.528 121.47 586.534 120.142C586.044 120.745 585.564 121.348 585.073 121.951C586.423 126.306 586.813 131.342 589.335 134.838C592.849 139.706 597.947 143.436 602.945 148.216C601.037 152.727 598.739 158.601 596.117 164.319C584.716 189.143 573.527 214.124 557.34 236.325C553.29 241.886 547.89 246.755 542.301 250.842C535.619 255.744 528.189 259.675 520.882 263.651C513.608 267.604 506.324 271.78 498.581 274.606C489.724 277.833 480.297 279.43 471.25 282.166C452.731 287.772 436.209 296.46 425.075 313.222C424.049 314.763 421.796 315.466 420.144 316.605C415.147 320.067 409.892 323.25 405.318 327.214C403.768 328.554 402.864 332.34 403.634 334.16C404.37 335.88 407.616 336.751 409.926 337.499C411.409 337.99 413.194 337.588 414.377 337.588C414.377 352.541 414.265 366.958 414.444 381.375C414.5 385.976 416.039 390.643 415.615 395.166C414.198 410.309 407.326 423.118 397.61 434.586C396.137 436.328 394.832 438.606 394.43 440.817C390.403 462.94 386.744 485.118 382.594 507.206C381.646 512.231 381.434 516.732 384.435 520.986C386.331 523.678 385.483 525.844 384.122 528.569C379.47 537.849 374.439 547.051 370.992 556.788C359.624 588.905 359.021 621.96 363.975 655.316C373.379 718.701 409.836 759.238 471.774 775.028C503.836 783.202 536.478 784.699 569.142 780.857C587.472 778.702 605.577 774.224 623.628 770.137C636.334 767.267 642.526 758.501 644.255 745.547C645.962 732.693 648.572 719.918 651.495 707.266C654.117 695.886 658.256 684.842 660.71 673.44C663.688 659.649 655.6 652.033 641.678 654.624C631.102 656.589 620.549 658.711 609.951 660.632C583.868 665.367 557.652 667.89 531.291 663.289C511.734 659.883 496.06 651.106 490.627 630.313C486.388 614.109 487.024 597.839 492.345 581.948C496.105 570.714 503.256 562.64 515.338 559.848C534.436 555.426 547.868 565.722 548.37 585.242C548.459 588.771 548.348 592.311 548.404 595.851C548.538 604.104 552.029 608.682 559.995 610.648C563.029 611.396 566.22 611.876 569.343 611.887C591.276 611.988 613.219 612.066 635.152 611.898C648.639 611.798 655.065 604.182 653.615 590.614C650.781 564.159 647.691 537.67 650.803 511.059C652.611 495.592 645.315 485.989 632.229 480.282C621.218 475.48 609.694 471.806 598.315 467.875C595.437 466.882 593.574 466.033 593.518 462.404C593.44 457.032 592.559 451.672 592.09 446.301C589.703 419.019 587.494 391.716 596.207 365.048C597.947 359.71 600.011 353.658 603.882 349.984C615.305 339.129 622.579 326.142 624.922 310.944C630.779 272.953 635.888 234.851 641.087 196.759C641.522 193.554 642.358 192.214 645.582 191.846C650 191.355 654.529 190.852 658.702 189.434C664.257 187.547 670.092 185.581 674.744 182.186C681.772 177.061 680.991 170.74 673.93 166.005L673.952 166.039ZM517.591 366.701C523.95 362.123 531.101 358.404 538.375 355.467C541.108 354.361 547.344 355.512 548.158 357.332C550.055 361.587 549.731 366.869 549.988 371.76C550.01 372.262 547.991 373.122 546.819 373.413C534.448 376.551 522.053 379.61 508.912 382.882C509.693 375.847 512.683 370.23 517.591 366.701ZM453.222 421.208C450.12 426.691 447.197 432.531 442.958 437.065C437.358 443.051 436.733 448.623 440.069 455.837C442.612 461.332 443.884 467.406 445.87 473.671C428.645 482.035 413.272 492.544 399.696 507.485C398.056 494.018 398.748 481.913 402.697 470.556C406.122 460.695 410.617 450.823 416.552 442.303C425.12 429.997 435.283 418.774 445.089 407.372C447.878 404.133 451.794 401.878 455.944 398.561C457.851 407.573 456.914 414.686 453.222 421.219V421.208ZM558.344 417.467C557.462 431.147 556.681 444.827 555.822 459.053C523.281 455.714 491.486 457.311 460.428 467.887C457.829 461.041 458.119 455 462.849 449.383C473.38 436.875 484.135 424.547 494.13 411.615C499.072 405.228 502.464 397.668 506.703 390.722C507.473 389.46 508.778 388.03 510.105 387.673C523.314 384.066 536.578 380.66 550.601 376.997C554.718 390.777 559.236 403.564 558.344 417.456V417.467ZM571.017 455.502C570.894 441.086 571.786 426.747 576.07 412.888C576.762 412.922 577.454 412.967 578.145 413C578.904 429.338 579.651 445.686 580.41 462.002C571.742 462.56 571.084 462.247 571.028 455.502H571.017ZM591.287 127.668C600.881 129.008 605.633 133.576 606.872 142.32C597.568 141.181 593.083 137.082 591.287 127.668ZM634.058 149.545C633.568 149.277 631.47 148.193 631.002 147.992C631.493 148.517 631.783 149.21 631.783 149.98C631.783 151.588 630.477 152.895 628.871 152.895C627.265 152.895 625.959 151.588 625.959 149.98C625.959 148.562 626.974 147.378 628.324 147.121C626.718 146.742 625.636 146.742 625.636 146.742C628.481 143.961 634.058 149.545 634.058 149.545ZM652.845 186.318C647.747 187.725 640.741 187.066 637.851 190.271C635.129 193.298 636.97 200.21 636.312 205.358C634.728 217.631 632.842 229.87 631.024 242.467C626.138 215.543 621.408 189.49 616.8 164.129C624.397 168.015 632.988 172.929 642.013 176.882C651.339 180.969 661.178 182.622 671.241 178.456C671.408 179.126 671.565 179.785 671.732 180.455C665.44 182.432 659.204 184.565 652.856 186.318H652.845Z" fill="#1C1D26"/>
</g>
<defs>
<clipPath id="clip0_29_253">
<rect width="659" height="879" fill="white" transform="translate(182 72)"/>
</clipPath>
</defs>
</svg>
