<svg xmlns="http://www.w3.org/2000/svg" width="46" height="38" viewBox="0 0 46 38">
<path id="panier" d="M44.61 12.6624C44.4475 12.4733 44.2458 12.3215 44.0187 12.2174C43.7916 12.1133 43.5445 12.0595 43.2945 12.0595H32.9085V5.16834C32.9085 3.79761 32.3614 2.48303 31.3875 1.51377C30.4136 0.544521 29.0928 0 27.7155 0H17.3296C15.9523 0 14.6314 0.544521 13.6576 1.51377C12.6837 2.48303 12.1366 3.79761 12.1366 5.16834V12.0595H1.7506C1.49968 12.0566 1.25115 12.1081 1.02222 12.2104C0.793287 12.3127 0.589432 12.4632 0.424777 12.6517C0.260121 12.8401 0.138603 13.062 0.0686407 13.3018C-0.00132142 13.5416 -0.0180543 13.7938 0.0196014 14.0407L3.27387 34.9725C3.39906 35.7941 3.81838 36.543 4.45457 37.0812C5.09076 37.6193 5.90095 37.9106 6.73586 37.9012H38.3438C39.1787 37.9106 39.9889 37.6193 40.6251 37.0812C41.2613 36.543 41.6806 35.7941 41.8058 34.9725L45.0255 14.0407C45.0601 13.7947 45.041 13.5442 44.9693 13.3063C44.8975 13.0684 44.775 12.8488 44.61 12.6624ZM15.5986 5.16834C15.5986 4.71143 15.7809 4.27324 16.1056 3.95015C16.4302 3.62707 16.8705 3.44556 17.3296 3.44556H27.7155C28.1746 3.44556 28.6149 3.62707 28.9395 3.95015C29.2641 4.27324 29.4465 4.71143 29.4465 5.16834V12.0595H15.5986V5.16834ZM38.3438 34.4556H6.70124L3.77586 15.505H41.2692L38.3438 34.4556Z" />
</svg>
